<svg xmlns="http://www.w3.org/2000/svg" viewBox="0 0 1200 630" width="1200" height="630">
  <rect width="1200" height="630" fill="#0f172a"/>
  <!-- Cube icon -->
  <g transform="translate(480, 140) scale(2.5)">
    <polygon points="25,55 0,40 25,25 50,40" fill="#475569"/>
    <polygon points="25,55 50,40 50,55 25,70" fill="#334155"/>
    <polygon points="25,55 0,40 0,55 25,70" fill="#1e293b"/>
    <polygon points="50,40 25,25 50,10 75,25" fill="#475569"/>
    <polygon points="50,40 75,25 75,40 50,55" fill="#334155"/>
    <polygon points="50,40 25,25 25,40 50,55" fill="#1e293b"/>
    <g transform="translate(50, -8)">
      <polygon points="25,40 0,25 25,10 50,25" fill="#2dd4bf"/>
      <polygon points="25,40 50,25 50,40 25,55" fill="#14b8a6"/>
      <polygon points="25,40 0,25 0,40 25,55" fill="#0d9488"/>
    </g>
  </g>
  <!-- Text -->
  <text x="600" y="440" font-family="system-ui, sans-serif" font-size="64" font-weight="700" text-anchor="middle">
    <tspan fill="#f1f5f9">Cube</tspan><tspan fill="#2dd4bf">OS</tspan>
  </text>
  <text x="600" y="500" font-family="system-ui, sans-serif" font-size="28" fill="#94a3b8" text-anchor="middle">Server OS for Raspberry Pi</text>
</svg>
